ply
format ascii 1.0
element vertex 336
property float x
property float y
property float z
property uchar red
property uchar green
property uchar blue
element face 640
property list uchar int vertex_index
end_header
33.0000 33.0000 0.0000 0 0 0
32.6800 32.3600 0.0000 0 0 0
32.6400 32.4600 0.0000 0 0 0
32.5800 32.6000 0.0000 0 0 0
32.5000 32.8000 0.0000 0 0 0
32.4400 33.0400 0.0000 0 0 0
32.4000 33.3200 0.0000 0 0 0
32.4800 33.5400 0.0000 0 0 0
32.5800 33.7400 0.0000 0 0 0
32.7600 33.8800 0.0000 0 0 0
32.9400 33.9400 0.0000 0 0 0
33.1400 33.8800 0.0000 0 0 0
33.3400 33.7400 0.0000 0 0 0
33.5400 33.5400 0.0000 0 0 0
33.6800 33.3400 0.0000 0 0 0
33.7600 33.1400 0.0000 0 0 0
33.8000 32.9400 0.0000 0 0 0
33.7400 32.7400 0.0000 0 0 0
33.5400 32.5400 0.0000 0 0 0
33.1400 32.4000 0.0000 0 0 0
32.8400 32.3600 0.0000 0 0 0
33.0000 33.0000 8.0000 48 43 43
30.8667 28.7333 8.0000 29 0 70
30.6000 29.4000 8.0000 0 0 68
30.2000 30.3333 8.0000 0 32 66
29.6667 31.6667 8.0000 0 48 62
29.2667 33.2667 8.0000 0 60 57
29.0000 35.1333 8.0000 0 71 49
29.5333 36.6000 8.0000 0 76 38
30.2000 37.9333 8.0000 0 81 19
31.4000 38.8667 8.0000 0 82 0
32.6000 39.2667 8.0000 0 81 0
33.9333 38.8667 8.0000 27 76 0
35.2667 37.9333 8.0000 56 68 0
36.6000 36.6000 8.0000 75 56 0
37.5333 35.2667 8.0000 86 42 0
38.0667 33.9333 8.0000 94 21 0
38.3333 32.6000 8.0000 99 0 0
37.9333 31.2667 8.0000 99 0 26
36.6000 29.9333 8.0000 93 0 44
33.9333 29.0000 8.0000 73 0 59
31.9333 28.7333 8.0000 50 0 67
33.0000 33.0000 16.0000 66 60 59
28.7333 24.4667 16.0000 39 0 95
28.2000 25.8000 16.0000 0 0 93
27.4000 27.6667 16.0000 0 44 90
26.3333 30.3333 16.0000 0 65 86
25.5333 33.5333 16.0000 0 82 78
25.0000 37.2667 16.0000 0 97 67
26.0667 40.2000 16.0000 0 105 52
27.4000 42.8667 16.0000 0 111 27
29.8000 44.7333 16.0000 0 112 0
32.2000 45.5333 16.0000 0 111 0
34.8667 44.7333 16.0000 37 104 0
37.5333 42.8667 16.0000 77 93 0
40.2000 40.2000 16.0000 103 77 0
42.0667 37.5333 16.0000 119 58 0
43.1333 34.8667 16.0000 129 28 0
43.6667 32.2000 16.0000 136 0 0
42.8667 29.5333 16.0000 136 0 36
40.2000 26.8667 16.0000 127 0 61
34.8667 25.0000 16.0000 100 0 82
30.8667 24.4667 16.0000 69 0 91
33.0000 33.0000 24.0000 80 72 72
26.6000 20.2000 24.0000 47 0 115
25.8000 22.2000 24.0000 0 0 112
24.6000 25.0000 24.0000 0 53 109
23.0000 29.0000 24.0000 0 79 103
21.8000 33.8000 24.0000 0 99 94
21.0000 39.4000 24.0000 0 117 81
22.6000 43.8000 24.0000 0 126 62
24.6000 47.8000 24.0000 0 133 32
28.2000 50.6000 24.0000 0 135 0
31.8000 51.8000 24.0000 0 133 0
35.8000 50.6000 24.0000 45 125 0
39.8000 47.8000 24.0000 93 112 0
43.8000 43.8000 24.0000 123 93 0
46.6000 39.8000 24.0000 143 69 0
48.2000 35.8000 24.0000 155 34 0
49.0000 31.8000 24.0000 164 0 0
47.8000 27.8000 24.0000 164 0 43
43.8000 23.8000 24.0000 153 0 74
35.8000 21.0000 24.0000 120 0 98
29.8000 20.2000 24.0000 83 0 110
33.0000 33.0000 32.0000 91 82 82
24.4667 15.9333 32.0000 54 0 131
23.4000 18.6000 32.0000 0 0 128
21.8000 22.3333 32.0000 0 60 124
19.6667 27.6667 32.0000 0 90 117
18.0667 34.0667 32.0000 0 113 107
17.0000 41.5333 32.0000 0 133 93
19.1333 47.4000 32.0000 0 144 71
21.8000 52.7333 32.0000 0 152 37
26.6000 56.4667 32.0000 0 154 0
31.4000 58.0667 32.0000 0 152 0
36.7333 56.4667 32.0000 51 143 0
42.0667 52.7333 32.0000 106 128 0
47.4000 47.4000 32.0000 141 106 0
51.1333 42.0667 32.0000 163 79 0
53.2667 36.7333 32.0000 177 39 0
54.3333 31.4000 32.0000 187 0 0
52.7333 26.0667 32.0000 187 0 49
47.4000 20.7333 32.0000 175 0 84
36.7333 17.0000 32.0000 137 0 112
28.7333 15.9333 32.0000 94 0 125
33.0000 33.0000 40.0000 101 91 90
22.3333 11.6667 40.0000 60 0 145
21.0000 15.0000 40.0000 0 0 142
19.0000 19.6667 40.0000 0 67 137
16.3333 26.3333 40.0000 0 99 130
14.3333 34.3333 40.0000 0 125 119
13.0000 43.6667 40.0000 0 148 103
15.6667 51.0000 40.0000 0 159 79
19.0000 57.6667 40.0000 0 168 41
25.0000 62.3333 40.0000 0 170 0
31.0000 64.3333 40.0000 0 168 0
37.6667 62.3333 40.0000 57 158 0
44.3333 57.6667 40.0000 117 142 0
51.0000 51.0000 40.0000 156 117 0
55.6667 44.3333 40.0000 180 87 0
58.3333 37.6667 40.0000 196 43 0
59.6667 31.0000 40.0000 207 0 0
57.6667 24.3333 40.0000 207 0 55
51.0000 17.6667 40.0000 193 0 93
37.6667 13.0000 40.0000 152 0 124
27.6667 11.6667 40.0000 104 0 139
33.0000 33.0000 48.0000 109 99 98
20.2000 7.4000 48.0000 65 0 158
18.6000 11.4000 48.0000 0 0 154
16.2000 17.0000 48.0000 0 72 149
13.0000 25.0000 48.0000 0 108 141
10.6000 34.6000 48.0000 0 136 129
9.0000 45.8000 48.0000 0 161 111
12.2000 54.6000 48.0000 0 173 86
16.2000 62.6000 48.0000 0 182 44
23.4000 68.2000 48.0000 0 185 0
30.6000 70.6000 48.0000 0 183 0
38.6000 68.2000 48.0000 62 172 0
46.6000 62.6000 48.0000 127 154 0
54.6000 54.6000 48.0000 169 127 0
60.2000 46.6000 48.0000 196 95 0
63.4000 38.6000 48.0000 213 47 0
65.0000 30.6000 48.0000 225 0 0
62.6000 22.6000 48.0000 225 0 60
54.6000 14.6000 48.0000 210 0 101
38.6000 9.0000 48.0000 165 0 135
26.6000 7.4000 48.0000 114 0 151
33.0000 33.0000 56.0000 117 106 105
18.0667 3.1333 56.0000 70 0 169
16.2000 7.8000 56.0000 0 0 165
13.4000 14.3333 56.0000 0 78 160
9.6667 23.6667 56.0000 0 116 152
6.8667 34.8667 56.0000 0 146 139
5.0000 47.9333 56.0000 0 172 120
8.7333 58.2000 56.0000 0 186 92
13.4000 67.5333 56.0000 0 196 47
21.8000 74.0667 56.0000 0 198 0
30.2000 76.8667 56.0000 0 196 0
39.5333 74.0667 56.0000 66 184 0
48.8667 67.5333 56.0000 136 165 0
58.2000 58.2000 56.0000 182 136 0
64.7333 48.8667 56.0000 210 102 0
68.4667 39.5333 56.0000 228 51 0
70.3333 30.2000 56.0000 241 0 0
67.5333 20.8667 56.0000 242 0 64
58.2000 11.5333 56.0000 225 0 108
39.5333 5.0000 56.0000 177 0 144
25.5333 3.1333 56.0000 122 0 162
33.0000 33.0000 64.0000 125 113 112
18.0667 3.1333 64.0000 74 0 180
16.2000 7.8000 64.0000 0 0 176
13.4000 14.3333 64.0000 0 83 170
9.6667 23.6667 64.0000 0 123 161
6.8667 34.8667 64.0000 0 155 147
5.0000 47.9333 64.0000 0 183 127
8.7333 58.2000 64.0000 0 197 98
13.4000 67.5333 64.0000 0 208 50
21.8000 74.0667 64.0000 0 211 0
30.2000 76.8667 64.0000 0 208 0
39.5333 74.0667 64.0000 71 196 0
48.8667 67.5333 64.0000 145 175 0
58.2000 58.2000 64.0000 193 145 0
64.7333 48.8667 64.0000 223 108 0
68.4667 39.5333 64.0000 242 54 0
70.3333 30.2000 64.0000 255 0 0
67.5333 20.8667 64.0000 255 0 68
58.2000 11.5333 64.0000 240 0 115
39.5333 5.0000 64.0000 188 0 154
25.5333 3.1333 64.0000 129 0 172
33.0000 33.0000 72.0000 132 119 118
20.2000 7.4000 72.0000 79 0 190
18.6000 11.4000 72.0000 0 0 185
16.2000 17.0000 72.0000 0 87 179
13.0000 25.0000 72.0000 0 130 170
10.6000 34.6000 72.0000 0 164 156
9.0000 45.8000 72.0000 0 193 134
12.2000 54.6000 72.0000 0 208 103
16.2000 62.6000 72.0000 0 219 53
23.4000 68.2000 72.0000 0 223 0
30.6000 70.6000 72.0000 0 220 0
38.6000 68.2000 72.0000 74 207 0
46.6000 62.6000 72.0000 153 185 0
54.6000 54.6000 72.0000 204 153 0
60.2000 46.6000 72.0000 235 114 0
63.4000 38.6000 72.0000 255 57 0
65.0000 30.6000 72.0000 255 0 0
62.6000 22.6000 72.0000 255 0 72
54.6000 14.6000 72.0000 253 0 122
38.6000 9.0000 72.0000 199 0 162
26.6000 7.4000 72.0000 137 0 182
33.0000 33.0000 80.0000 138 125 124
22.3333 11.6667 80.0000 82 0 199
21.0000 15.0000 80.0000 0 0 194
19.0000 19.6667 80.0000 0 91 188
16.3333 26.3333 80.0000 0 137 178
14.3333 34.3333 80.0000 0 172 163
13.0000 43.6667 80.0000 0 203 141
15.6667 51.0000 80.0000 0 218 108
19.0000 57.6667 80.0000 0 230 56
25.0000 62.3333 80.0000 0 234 0
31.0000 64.3333 80.0000 0 231 0
37.6667 62.3333 80.0000 78 217 0
44.3333 57.6667 80.0000 160 194 0
51.0000 51.0000 80.0000 214 160 0
55.6667 44.3333 80.0000 247 120 0
58.3333 37.6667 80.0000 255 60 0
59.6667 31.0000 80.0000 255 0 0
57.6667 24.3333 80.0000 255 0 75
51.0000 17.6667 80.0000 255 0 128
37.6667 13.0000 80.0000 208 0 170
27.6667 11.6667 80.0000 143 0 190
33.0000 33.0000 88.0000 144 130 130
24.4667 15.9333 88.0000 86 0 208
23.4000 18.6000 88.0000 0 0 203
21.8000 22.3333 88.0000 0 95 196
19.6667 27.6667 88.0000 0 143 186
18.0667 34.0667 88.0000 0 179 170
17.0000 41.5333 88.0000 0 212 147
19.1333 47.4000 88.0000 0 228 113
21.8000 52.7333 88.0000 0 240 58
26.6000 56.4667 88.0000 0 244 0
31.4000 58.0667 88.0000 0 241 0
36.7333 56.4667 88.0000 82 227 0
42.0667 52.7333 88.0000 167 203 0
47.4000 47.4000 88.0000 223 167 0
51.1333 42.0667 88.0000 255 125 0
53.2667 36.7333 88.0000 255 62 0
54.3333 31.4000 88.0000 255 0 0
52.7333 26.0667 88.0000 255 0 79
47.4000 20.7333 88.0000 255 0 133
36.7333 17.0000 88.0000 218 0 178
28.7333 15.9333 88.0000 150 0 199
33.0000 33.0000 96.0000 150 135 135
26.6000 20.2000 96.0000 90 0 216
25.8000 22.2000 96.0000 0 0 211
24.6000 25.0000 96.0000 0 99 204
23.0000 29.0000 96.0000 0 148 194
21.8000 33.8000 96.0000 0 187 177
21.0000 39.4000 96.0000 0 220 153
22.6000 43.8000 96.0000 0 237 118
24.6000 47.8000 96.0000 0 250 61
28.2000 50.6000 96.0000 0 254 0
31.8000 51.8000 96.0000 0 251 0
35.8000 50.6000 96.0000 85 236 0
39.8000 47.8000 96.0000 174 211 0
43.8000 43.8000 96.0000 232 174 0
46.6000 39.8000 96.0000 255 130 0
48.2000 35.8000 96.0000 255 65 0
49.0000 31.8000 96.0000 255 0 0
47.8000 27.8000 96.0000 255 0 82
43.8000 23.8000 96.0000 255 0 139
35.8000 21.0000 96.0000 226 0 185
29.8000 20.2000 96.0000 156 0 207
33.0000 33.0000 104.0000 156 141 140
28.7333 24.4667 104.0000 93 0 224
28.2000 25.8000 104.0000 0 0 219
27.4000 27.6667 104.0000 0 103 212
26.3333 30.3333 104.0000 0 154 201
25.5333 33.5333 104.0000 0 194 184
25.0000 37.2667 104.0000 0 228 159
26.0667 40.2000 104.0000 0 246 122
27.4000 42.8667 104.0000 0 255 63
29.8000 44.7333 104.0000 0 255 0
32.2000 45.5333 104.0000 0 255 0
34.8667 44.7333 104.0000 88 245 0
37.5333 42.8667 104.0000 181 219 0
40.2000 40.2000 104.0000 241 181 0
42.0667 37.5333 104.0000 255 135 0
43.1333 34.8667 104.0000 255 67 0
43.6667 32.2000 104.0000 255 0 0
42.8667 29.5333 104.0000 255 0 85
40.2000 26.8667 104.0000 255 0 144
34.8667 25.0000 104.0000 235 0 192
30.8667 24.4667 104.0000 162 0 215
33.0000 33.0000 112.0000 161 145 145
30.8667 28.7333 112.0000 96 0 232
30.6000 29.4000 112.0000 0 0 227
30.2000 30.3333 112.0000 0 107 219
29.6667 31.6667 112.0000 0 159 208
29.2667 33.2667 112.0000 0 200 190
29.0000 35.1333 112.0000 0 236 164
29.5333 36.6000 112.0000 0 254 126
30.2000 37.9333 112.0000 0 255 65
31.4000 38.8667 112.0000 0 255 0
32.6000 39.2667 112.0000 0 255 0
33.9333 38.8667 112.0000 91 253 0
35.2667 37.9333 112.0000 187 226 0
36.6000 36.6000 112.0000 249 187 0
37.5333 35.2667 112.0000 255 140 0
38.0667 33.9333 112.0000 255 70 0
38.3333 32.6000 112.0000 255 0 0
37.9333 31.2667 112.0000 255 0 88
36.6000 29.9333 112.0000 255 0 149
33.9333 29.0000 112.0000 243 0 198
31.9333 28.7333 112.0000 167 0 222
33.0000 33.0000 120.0000 166 150 149
32.6800 32.3600 120.0000 99 0 239
32.6400 32.4600 120.0000 0 0 234
32.5800 32.6000 120.0000 0 110 226
32.5000 32.8000 120.0000 0 164 214
32.4400 33.0400 120.0000 0 207 196
32.4000 33.3200 120.0000 0 244 169
32.4800 33.5400 120.0000 0 255 130
32.5800 33.7400 120.0000 0 255 67
32.7600 33.8800 120.0000 0 255 0
32.9400 33.9400 120.0000 0 255 0
33.1400 33.8800 120.0000 94 255 0
33.3400 33.7400 120.0000 193 234 0
33.5400 33.5400 120.0000 255 193 0
33.6800 33.3400 120.0000 255 144 0
33.7600 33.1400 120.0000 255 72 0
33.8000 32.9400 120.0000 255 0 0
33.7400 32.7400 120.0000 255 0 91
33.5400 32.5400 120.0000 255 0 154
33.1400 32.4000 120.0000 251 0 204
32.8400 32.3600 120.0000 172 0 229
3 1 2 23
3 1 23 22
3 2 3 24
3 2 24 23
3 3 4 25
3 3 25 24
3 4 5 26
3 4 26 25
3 5 6 27
3 5 27 26
3 6 7 28
3 6 28 27
3 7 8 29
3 7 29 28
3 8 9 30
3 8 30 29
3 9 10 31
3 9 31 30
3 10 11 32
3 10 32 31
3 11 12 33
3 11 33 32
3 12 13 34
3 12 34 33
3 13 14 35
3 13 35 34
3 14 15 36
3 14 36 35
3 15 16 37
3 15 37 36
3 16 17 38
3 16 38 37
3 17 18 39
3 17 39 38
3 18 19 40
3 18 40 39
3 19 20 41
3 19 41 40
3 20 1 22
3 20 22 41
3 22 23 44
3 22 44 43
3 23 24 45
3 23 45 44
3 24 25 46
3 24 46 45
3 25 26 47
3 25 47 46
3 26 27 48
3 26 48 47
3 27 28 49
3 27 49 48
3 28 29 50
3 28 50 49
3 29 30 51
3 29 51 50
3 30 31 52
3 30 52 51
3 31 32 53
3 31 53 52
3 32 33 54
3 32 54 53
3 33 34 55
3 33 55 54
3 34 35 56
3 34 56 55
3 35 36 57
3 35 57 56
3 36 37 58
3 36 58 57
3 37 38 59
3 37 59 58
3 38 39 60
3 38 60 59
3 39 40 61
3 39 61 60
3 40 41 62
3 40 62 61
3 41 22 43
3 41 43 62
3 43 44 65
3 43 65 64
3 44 45 66
3 44 66 65
3 45 46 67
3 45 67 66
3 46 47 68
3 46 68 67
3 47 48 69
3 47 69 68
3 48 49 70
3 48 70 69
3 49 50 71
3 49 71 70
3 50 51 72
3 50 72 71
3 51 52 73
3 51 73 72
3 52 53 74
3 52 74 73
3 53 54 75
3 53 75 74
3 54 55 76
3 54 76 75
3 55 56 77
3 55 77 76
3 56 57 78
3 56 78 77
3 57 58 79
3 57 79 78
3 58 59 80
3 58 80 79
3 59 60 81
3 59 81 80
3 60 61 82
3 60 82 81
3 61 62 83
3 61 83 82
3 62 43 64
3 62 64 83
3 64 65 86
3 64 86 85
3 65 66 87
3 65 87 86
3 66 67 88
3 66 88 87
3 67 68 89
3 67 89 88
3 68 69 90
3 68 90 89
3 69 70 91
3 69 91 90
3 70 71 92
3 70 92 91
3 71 72 93
3 71 93 92
3 72 73 94
3 72 94 93
3 73 74 95
3 73 95 94
3 74 75 96
3 74 96 95
3 75 76 97
3 75 97 96
3 76 77 98
3 76 98 97
3 77 78 99
3 77 99 98
3 78 79 100
3 78 100 99
3 79 80 101
3 79 101 100
3 80 81 102
3 80 102 101
3 81 82 103
3 81 103 102
3 82 83 104
3 82 104 103
3 83 64 85
3 83 85 104
3 85 86 107
3 85 107 106
3 86 87 108
3 86 108 107
3 87 88 109
3 87 109 108
3 88 89 110
3 88 110 109
3 89 90 111
3 89 111 110
3 90 91 112
3 90 112 111
3 91 92 113
3 91 113 112
3 92 93 114
3 92 114 113
3 93 94 115
3 93 115 114
3 94 95 116
3 94 116 115
3 95 96 117
3 95 117 116
3 96 97 118
3 96 118 117
3 97 98 119
3 97 119 118
3 98 99 120
3 98 120 119
3 99 100 121
3 99 121 120
3 100 101 122
3 100 122 121
3 101 102 123
3 101 123 122
3 102 103 124
3 102 124 123
3 103 104 125
3 103 125 124
3 104 85 106
3 104 106 125
3 106 107 128
3 106 128 127
3 107 108 129
3 107 129 128
3 108 109 130
3 108 130 129
3 109 110 131
3 109 131 130
3 110 111 132
3 110 132 131
3 111 112 133
3 111 133 132
3 112 113 134
3 112 134 133
3 113 114 135
3 113 135 134
3 114 115 136
3 114 136 135
3 115 116 137
3 115 137 136
3 116 117 138
3 116 138 137
3 117 118 139
3 117 139 138
3 118 119 140
3 118 140 139
3 119 120 141
3 119 141 140
3 120 121 142
3 120 142 141
3 121 122 143
3 121 143 142
3 122 123 144
3 122 144 143
3 123 124 145
3 123 145 144
3 124 125 146
3 124 146 145
3 125 106 127
3 125 127 146
3 127 128 149
3 127 149 148
3 128 129 150
3 128 150 149
3 129 130 151
3 129 151 150
3 130 131 152
3 130 152 151
3 131 132 153
3 131 153 152
3 132 133 154
3 132 154 153
3 133 134 155
3 133 155 154
3 134 135 156
3 134 156 155
3 135 136 157
3 135 157 156
3 136 137 158
3 136 158 157
3 137 138 159
3 137 159 158
3 138 139 160
3 138 160 159
3 139 140 161
3 139 161 160
3 140 141 162
3 140 162 161
3 141 142 163
3 141 163 162
3 142 143 164
3 142 164 163
3 143 144 165
3 143 165 164
3 144 145 166
3 144 166 165
3 145 146 167
3 145 167 166
3 146 127 148
3 146 148 167
3 148 149 170
3 148 170 169
3 149 150 171
3 149 171 170
3 150 151 172
3 150 172 171
3 151 152 173
3 151 173 172
3 152 153 174
3 152 174 173
3 153 154 175
3 153 175 174
3 154 155 176
3 154 176 175
3 155 156 177
3 155 177 176
3 156 157 178
3 156 178 177
3 157 158 179
3 157 179 178
3 158 159 180
3 158 180 179
3 159 160 181
3 159 181 180
3 160 161 182
3 160 182 181
3 161 162 183
3 161 183 182
3 162 163 184
3 162 184 183
3 163 164 185
3 163 185 184
3 164 165 186
3 164 186 185
3 165 166 187
3 165 187 186
3 166 167 188
3 166 188 187
3 167 148 169
3 167 169 188
3 169 170 191
3 169 191 190
3 170 171 192
3 170 192 191
3 171 172 193
3 171 193 192
3 172 173 194
3 172 194 193
3 173 174 195
3 173 195 194
3 174 175 196
3 174 196 195
3 175 176 197
3 175 197 196
3 176 177 198
3 176 198 197
3 177 178 199
3 177 199 198
3 178 179 200
3 178 200 199
3 179 180 201
3 179 201 200
3 180 181 202
3 180 202 201
3 181 182 203
3 181 203 202
3 182 183 204
3 182 204 203
3 183 184 205
3 183 205 204
3 184 185 206
3 184 206 205
3 185 186 207
3 185 207 206
3 186 187 208
3 186 208 207
3 187 188 209
3 187 209 208
3 188 169 190
3 188 190 209
3 190 191 212
3 190 212 211
3 191 192 213
3 191 213 212
3 192 193 214
3 192 214 213
3 193 194 215
3 193 215 214
3 194 195 216
3 194 216 215
3 195 196 217
3 195 217 216
3 196 197 218
3 196 218 217
3 197 198 219
3 197 219 218
3 198 199 220
3 198 220 219
3 199 200 221
3 199 221 220
3 200 201 222
3 200 222 221
3 201 202 223
3 201 223 222
3 202 203 224
3 202 224 223
3 203 204 225
3 203 225 224
3 204 205 226
3 204 226 225
3 205 206 227
3 205 227 226
3 206 207 228
3 206 228 227
3 207 208 229
3 207 229 228
3 208 209 230
3 208 230 229
3 209 190 211
3 209 211 230
3 211 212 233
3 211 233 232
3 212 213 234
3 212 234 233
3 213 214 235
3 213 235 234
3 214 215 236
3 214 236 235
3 215 216 237
3 215 237 236
3 216 217 238
3 216 238 237
3 217 218 239
3 217 239 238
3 218 219 240
3 218 240 239
3 219 220 241
3 219 241 240
3 220 221 242
3 220 242 241
3 221 222 243
3 221 243 242
3 222 223 244
3 222 244 243
3 223 224 245
3 223 245 244
3 224 225 246
3 224 246 245
3 225 226 247
3 225 247 246
3 226 227 248
3 226 248 247
3 227 228 249
3 227 249 248
3 228 229 250
3 228 250 249
3 229 230 251
3 229 251 250
3 230 211 232
3 230 232 251
3 232 233 254
3 232 254 253
3 233 234 255
3 233 255 254
3 234 235 256
3 234 256 255
3 235 236 257
3 235 257 256
3 236 237 258
3 236 258 257
3 237 238 259
3 237 259 258
3 238 239 260
3 238 260 259
3 239 240 261
3 239 261 260
3 240 241 262
3 240 262 261
3 241 242 263
3 241 263 262
3 242 243 264
3 242 264 263
3 243 244 265
3 243 265 264
3 244 245 266
3 244 266 265
3 245 246 267
3 245 267 266
3 246 247 268
3 246 268 267
3 247 248 269
3 247 269 268
3 248 249 270
3 248 270 269
3 249 250 271
3 249 271 270
3 250 251 272
3 250 272 271
3 251 232 253
3 251 253 272
3 253 254 275
3 253 275 274
3 254 255 276
3 254 276 275
3 255 256 277
3 255 277 276
3 256 257 278
3 256 278 277
3 257 258 279
3 257 279 278
3 258 259 280
3 258 280 279
3 259 260 281
3 259 281 280
3 260 261 282
3 260 282 281
3 261 262 283
3 261 283 282
3 262 263 284
3 262 284 283
3 263 264 285
3 263 285 284
3 264 265 286
3 264 286 285
3 265 266 287
3 265 287 286
3 266 267 288
3 266 288 287
3 267 268 289
3 267 289 288
3 268 269 290
3 268 290 289
3 269 270 291
3 269 291 290
3 270 271 292
3 270 292 291
3 271 272 293
3 271 293 292
3 272 253 274
3 272 274 293
3 274 275 296
3 274 296 295
3 275 276 297
3 275 297 296
3 276 277 298
3 276 298 297
3 277 278 299
3 277 299 298
3 278 279 300
3 278 300 299
3 279 280 301
3 279 301 300
3 280 281 302
3 280 302 301
3 281 282 303
3 281 303 302
3 282 283 304
3 282 304 303
3 283 284 305
3 283 305 304
3 284 285 306
3 284 306 305
3 285 286 307
3 285 307 306
3 286 287 308
3 286 308 307
3 287 288 309
3 287 309 308
3 288 289 310
3 288 310 309
3 289 290 311
3 289 311 310
3 290 291 312
3 290 312 311
3 291 292 313
3 291 313 312
3 292 293 314
3 292 314 313
3 293 274 295
3 293 295 314
3 295 296 317
3 295 317 316
3 296 297 318
3 296 318 317
3 297 298 319
3 297 319 318
3 298 299 320
3 298 320 319
3 299 300 321
3 299 321 320
3 300 301 322
3 300 322 321
3 301 302 323
3 301 323 322
3 302 303 324
3 302 324 323
3 303 304 325
3 303 325 324
3 304 305 326
3 304 326 325
3 305 306 327
3 305 327 326
3 306 307 328
3 306 328 327
3 307 308 329
3 307 329 328
3 308 309 330
3 308 330 329
3 309 310 331
3 309 331 330
3 310 311 332
3 310 332 331
3 311 312 333
3 311 333 332
3 312 313 334
3 312 334 333
3 313 314 335
3 313 335 334
3 314 295 316
3 314 316 335
3 0 2 1
3 0 3 2
3 0 4 3
3 0 5 4
3 0 6 5
3 0 7 6
3 0 8 7
3 0 9 8
3 0 10 9
3 0 11 10
3 0 12 11
3 0 13 12
3 0 14 13
3 0 15 14
3 0 16 15
3 0 17 16
3 0 18 17
3 0 19 18
3 0 20 19
3 0 1 20
3 315 316 317
3 315 317 318
3 315 318 319
3 315 319 320
3 315 320 321
3 315 321 322
3 315 322 323
3 315 323 324
3 315 324 325
3 315 325 326
3 315 326 327
3 315 327 328
3 315 328 329
3 315 329 330
3 315 330 331
3 315 331 332
3 315 332 333
3 315 333 334
3 315 334 335
3 315 335 316
