ply
format ascii 1.0
element vertex 42
property float x
property float y
property float z
property uchar red
property uchar green
property uchar blue
element face 80
property list uchar int vertex_index
end_header
33.0000 33.0000 0.0000 255 255 255
25.0000 17.0000 0.0000 99 0 239
24.0000 19.5000 0.0000 0 0 234
22.5000 23.0000 0.0000 0 110 226
20.5000 28.0000 0.0000 0 164 214
19.0000 34.0000 0.0000 0 207 196
18.0000 41.0000 0.0000 0 244 169
20.0000 46.5000 0.0000 0 255 130
22.5000 51.5000 0.0000 0 255 67
27.0000 55.0000 0.0000 0 255 0
31.5000 56.5000 0.0000 0 255 0
36.5000 55.0000 0.0000 94 255 0
41.5000 51.5000 0.0000 193 234 0
46.5000 46.5000 0.0000 255 193 0
50.0000 41.5000 0.0000 255 144 0
52.0000 36.5000 0.0000 255 72 0
53.0000 31.5000 0.0000 255 0 0
51.5000 26.5000 0.0000 255 0 91
46.5000 21.5000 0.0000 255 0 154
36.5000 18.0000 0.0000 251 0 204
29.0000 17.0000 0.0000 172 0 229
33.0000 33.0000 100.0000 255 255 255
17.0000 1.0000 100.0000 99 0 239
15.0000 6.0000 100.0000 0 0 234
12.0000 13.0000 100.0000 0 110 226
8.0000 23.0000 100.0000 0 164 214
5.0000 35.0000 100.0000 0 207 196
3.0000 49.0000 100.0000 0 244 169
7.0000 60.0000 100.0000 0 255 130
12.0000 70.0000 100.0000 0 255 67
21.0000 77.0000 100.0000 0 255 0
30.0000 80.0000 100.0000 0 255 0
40.0000 77.0000 100.0000 94 255 0
50.0000 70.0000 100.0000 193 234 0
60.0000 60.0000 100.0000 255 193 0
67.0000 50.0000 100.0000 255 144 0
71.0000 40.0000 100.0000 255 72 0
73.0000 30.0000 100.0000 255 0 0
70.0000 20.0000 100.0000 255 0 91
60.0000 10.0000 100.0000 255 0 154
40.0000 3.0000 100.0000 251 0 204
25.0000 1.0000 100.0000 172 0 229
3 0 2 1
3 0 3 2
3 0 4 3
3 0 5 4
3 0 6 5
3 0 7 6
3 0 8 7
3 0 9 8
3 0 10 9
3 0 11 10
3 0 12 11
3 0 13 12
3 0 14 13
3 0 15 14
3 0 16 15
3 0 17 16
3 0 18 17
3 0 19 18
3 0 20 19
3 0 1 20
3 21 22 23
3 21 23 24
3 21 24 25
3 21 25 26
3 21 26 27
3 21 27 28
3 21 28 29
3 21 29 30
3 21 30 31
3 21 31 32
3 21 32 33
3 21 33 34
3 21 34 35
3 21 35 36
3 21 36 37
3 21 37 38
3 21 38 39
3 21 39 40
3 21 40 41
3 21 41 22
3 1 2 23
3 1 23 22
3 2 3 24
3 2 24 23
3 3 4 25
3 3 25 24
3 4 5 26
3 4 26 25
3 5 6 27
3 5 27 26
3 6 7 28
3 6 28 27
3 7 8 29
3 7 29 28
3 8 9 30
3 8 30 29
3 9 10 31
3 9 31 30
3 10 11 32
3 10 32 31
3 11 12 33
3 11 33 32
3 12 13 34
3 12 34 33
3 13 14 35
3 13 35 34
3 14 15 36
3 14 36 35
3 15 16 37
3 15 37 36
3 16 17 38
3 16 38 37
3 17 18 39
3 17 39 38
3 18 19 40
3 18 40 39
3 19 20 41
3 19 41 40
3 20 1 22
3 20 22 41
